<?xml version="1.0" encoding="UTF-8" standalone="no"?><!DOCTYPE svg PUBLIC "-//W3C//DTD SVG 1.1//EN" "http://www.w3.org/Graphics/SVG/1.1/DTD/svg11.dtd"><svg width="100%" height="100%" viewBox="0 0 7573 2258" version="1.1" xmlns="http://www.w3.org/2000/svg" xmlns:xlink="http://www.w3.org/1999/xlink" xml:space="preserve" xmlns:serif="http://www.serif.com/" style="fill-rule:evenodd;clip-rule:evenodd;stroke-linejoin:round;stroke-miterlimit:2;"><rect id="Banner" x="0" y="0" width="7572.851" height="2257.002" style="fill:none;"/><g><g transform="matrix(1115.05603,0,0,1115.05603,7329.450628,1309.229454)"></g><text x="2027.359px" y="1309.229px" style="font-family:'Montserrat-Bold', 'Montserrat';font-weight:700;font-size:1115.056px;fill:#010123;">egoc<tspan x="4896.398px " y="1309.229px ">i</tspan>oS<tspan x="6662.647px " y="1309.229px ">v</tspan></text><g><path d="M351.382,1352.287c-74.296,-129.001 -116.901,-279.166 -116.901,-439.381c0,-480.46 383.153,-870.533 855.09,-870.533c471.937,0 855.09,390.073 855.09,870.533c0,161.873 -43.492,313.486 -119.218,443.379c-18.074,31.003 -37.985,60.768 -59.579,89.141l-645.989,754.513c-8.005,9.349 -19.706,14.719 -32.014,14.691c-12.308,-0.028 -23.985,-5.452 -31.946,-14.838l-660.4,-778.556c-15.737,-22.221 -30.47,-45.227 -44.132,-68.948Z" style="fill:#010123;"/><g transform="matrix(1115.05603,0,0,1115.05603,1540.053179,1304.894492)"></g><text x="639.088px" y="1304.894px" style="font-family:'Montserrat-Bold', 'Montserrat';font-weight:700;font-size:1115.056px;fill:#fff;">N</text></g></g></svg>