<?xml version="1.0" encoding="UTF-8" standalone="no"?><!DOCTYPE svg PUBLIC "-//W3C//DTD SVG 1.1//EN" "http://www.w3.org/Graphics/SVG/1.1/DTD/svg11.dtd"><svg width="100%" height="100%" viewBox="0 0 2371 2371" version="1.1" xmlns="http://www.w3.org/2000/svg" xmlns:xlink="http://www.w3.org/1999/xlink" xml:space="preserve" xmlns:serif="http://www.serif.com/" style="fill-rule:evenodd;clip-rule:evenodd;stroke-linejoin:round;stroke-miterlimit:2;"><rect id="Asilada" x="0" y="0" width="2370.105" height="2370.105" style="fill:none;"/><g><path d="M446.864,1408.839c-74.296,-129.001 -116.901,-279.166 -116.901,-439.381c0,-480.46 383.153,-870.533 855.09,-870.533c471.937,0 855.09,390.073 855.09,870.533c0,161.873 -43.492,313.486 -119.218,443.379c-18.074,31.003 -37.985,60.768 -59.579,89.141l-645.989,754.513c-8.005,9.349 -19.706,14.719 -32.014,14.691c-12.308,-0.028 -23.985,-5.452 -31.946,-14.838l-660.4,-778.556c-15.737,-22.221 -30.47,-45.227 -44.132,-68.948Z" style="fill:#010123;"/><g transform="matrix(1115.05603,0,0,1115.05603,1635.535385,1361.446077)"></g><text x="734.57px" y="1361.446px" style="font-family:'Montserrat-Bold', 'Montserrat';font-weight:700;font-size:1115.056px;fill:#fff;">N</text></g></svg>